{"glyphs":{"0":{"x_min":56,"x_max":566,"ha":621,"o":"m 311 -16 l 311 -16 q 235 -16 185 16.5 q 135 49 107 102.5 q 79 156 67.5 220 q 56 284 56 347 l 56 347 q 56 410 70.5 475 q 85 540 116 594.5 q 147 649 196 682.5 q 245 716 315 716 l 315 716 q 388 716 436.5 683 q 485 650 513.5 596.5 q 542 543 554 479 q 566 415 566 352 l 566 352 q 566 290 552 225 q 538 160 508 105.5 q 478 51 429.5 17.5 q 381 -16 311 -16 z m 317 23 l 317 23 q 360 23 388 50 q 416 77 432.5 122 q 449 167 456 221.5 q 463 276 463 331 l 463 331 q 463 392 456 453 q 449 514 432 565 q 415 616 386 647 q 357 678 313 678 l 313 678 q 270 678 240.5 651 q 211 624 193 579 q 175 534 167 479 q 159 424 159 368 l 159 368 q 159 326 163 279 q 167 232 177.5 186.5 q 188 141 206 104 q 224 67 251 45 q 278 23 317 23 z"},"1":{"x_min":18,"x_max":329,"ha":364,"o":"m 329 0 l 74 0 l 74 33 q 109 35 127.5 49 q 146 63 153.5 88 q 161 113 161 147 l 161 147 l 158 619 l 38 542 l 18 571 l 213 716 l 247 716 l 248 109 q 248 90 247.5 72 q 247 54 245 40 l 245 40 q 266 41 287 42 q 308 43 329 44 l 329 44 l 329 0 z"},"2":{"x_min":46,"x_max":485,"ha":537,"o":"m 479 0 l 46 0 q 46 53 62.5 94 q 79 135 107 169.5 q 135 204 170.5 236.5 q 206 269 243 305 l 243 305 q 308 367 337 420 q 366 473 366 522 l 366 522 q 366 560 355.5 595.5 q 345 631 318 654 q 291 677 243 677 l 243 677 q 202 677 170 656.5 q 138 636 127 606 l 127 606 q 137 596 141 584.5 q 145 573 145 562 l 145 562 q 145 553 140.5 542 q 136 531 125 523 q 114 515 96 515 l 96 515 q 74 516 62 532 q 50 548 50 570 l 50 570 q 50 591 63 616.5 q 76 642 102.5 664.5 q 129 687 168 701.5 q 207 716 259 716 l 259 716 q 299 716 336.5 706.5 q 374 697 404 676 q 434 655 451.5 620.5 q 469 586 469 535 l 469 535 q 469 510 458.5 481 q 448 452 424.5 418.5 q 401 385 364 347.5 q 327 310 273 266 l 273 266 q 205 210 161.5 160.5 q 118 111 111 76 l 111 76 l 288 71 q 337 70 374.5 71 q 412 72 433.5 86.5 q 455 101 455 140 l 455 140 l 485 140 l 479 0 z"},"3":{"x_min":44,"x_max":507,"ha":557,"o":"m 255 -16 l 255 -16 q 183 -16 136 5.5 q 89 27 66.5 59 q 44 91 44 120 l 44 120 q 44 143 56 158.5 q 68 174 90 175 l 90 175 q 108 176 118.5 168.5 q 129 161 133 150 q 137 139 137 130 l 137 130 q 137 120 134 110 q 131 100 126 90 l 126 90 q 136 56 171.5 41 q 207 26 248 26 l 248 26 q 319 26 361.5 65 q 404 104 404 178 l 404 178 q 404 222 390 261.5 q 376 301 338 326 q 300 351 227 349 l 227 349 q 219 349 210 348.5 q 201 348 190 347 l 190 347 l 190 392 q 201 392 211 392 q 221 392 231 392 l 231 392 q 284 392 314 416 q 344 440 357 473 q 370 506 370 534 l 370 534 q 370 575 359.5 607.5 q 349 640 323 658.5 q 297 677 251 677 l 251 677 q 206 677 174 653.5 q 142 630 134 605 l 134 605 q 143 595 146.5 585 q 150 575 150 564 l 150 564 q 150 556 145.5 545.5 q 141 535 131 528 q 121 521 104 521 l 104 521 q 83 521 72 536 q 61 551 61 572 l 61 572 q 61 600 83 633.5 q 105 667 150.5 691.5 q 196 716 265 716 l 265 716 q 319 716 365 699 q 411 682 439 643.5 q 467 605 467 542 l 467 542 q 467 511 451.5 479.5 q 436 448 400.5 421 q 365 394 303 375 l 303 375 q 398 365 452.5 314 q 507 263 507 185 l 507 185 q 507 117 471.5 72.5 q 436 28 378.5 6 q 321 -16 255 -16 z"},"4":{"x_min":12,"x_max":508,"ha":542,"o":"m 407 193 l 407 109 q 407 89 406.5 71 q 406 53 403 38 l 403 38 q 423 39 442 39.5 q 461 40 480 41 l 480 41 l 480 0 l 229 0 l 229 33 l 236 33 q 270 36 287 52 q 304 68 310 95 q 316 122 316 159 l 316 159 l 316 193 l 12 193 l 12 242 l 374 716 l 407 716 l 407 253 l 508 252 l 508 193 l 407 193 z m 316 574 l 314 574 l 78 258 l 316 255 l 316 574 z"},"5":{"x_min":52,"x_max":500,"ha":545,"o":"m 254 -16 l 254 -16 q 190 -16 145 5.5 q 100 27 76 59 q 52 91 52 120 l 52 120 q 52 143 64 158.5 q 76 174 98 175 l 98 175 q 116 176 126.5 168.5 q 137 161 141 150 q 145 139 145 130 l 145 130 q 145 120 142 110 q 139 100 134 91 l 134 91 q 138 67 159 51.5 q 180 36 207.5 29 q 235 22 258 23 l 258 23 q 307 25 337 49.5 q 367 74 381.5 112 q 396 150 396 192 l 396 192 q 396 220 391.5 254 q 387 288 371.5 318.5 q 356 349 325 369 q 294 389 241 389 l 241 389 q 224 389 199.5 385 q 175 381 150.5 373 q 126 365 109 354 l 109 354 l 81 380 l 79 700 l 338 700 q 395 700 416.5 715.5 q 438 731 438 765 l 438 765 l 465 765 l 459 633 l 125 626 l 125 406 q 149 416 187.5 425 q 226 434 270 434 l 270 434 q 332 434 375.5 414.5 q 419 395 446.5 362.5 q 474 330 487 290.5 q 500 251 500 210 l 500 210 q 500 136 465.5 85.5 q 431 35 375 9.5 q 319 -16 254 -16 z"},"6":{"x_min":56,"x_max":529,"ha":578,"o":"m 295 -16 l 295 -16 q 206 -16 153.5 26 q 101 68 78.5 145.5 q 56 223 56 329 l 56 329 q 56 365 62.5 414.5 q 69 464 86 516.5 q 103 569 133.5 614.5 q 164 660 212 688 q 260 716 328 716 l 328 716 q 388 716 427 694.5 q 466 673 485.5 643.5 q 505 614 505 589 l 505 589 q 505 568 494.5 553.5 q 484 539 462 537 l 462 537 q 437 536 427 551 q 417 566 417 579 l 417 579 q 417 589 420 600 q 423 611 429 621 l 429 621 q 424 639 397.5 659 q 371 679 330 679 l 330 679 q 284 679 252.5 655 q 221 631 201.5 592 q 182 553 171 508.5 q 160 464 155.5 423 q 151 382 150 353 l 150 353 q 167 375 191 394 q 215 413 247 425 q 279 437 318 437 l 318 437 q 378 437 418.5 416.5 q 459 396 483.5 363 q 508 330 518.5 290.5 q 529 251 529 213 l 529 213 q 529 151 498.5 98.5 q 468 46 415 15 q 362 -16 295 -16 z m 297 23 l 297 23 q 344 23 373 46.5 q 402 70 415 108.5 q 428 147 428 191 l 428 191 q 428 219 423 253.5 q 418 288 404.5 319.5 q 391 351 365 371.5 q 339 392 297 392 l 297 392 q 266 392 236 376.5 q 206 361 183.5 336 q 161 311 151 282 l 151 282 q 154 234 162.5 188 q 171 142 187.5 105 q 204 68 231 45.5 q 258 23 297 23 z"},"7":{"x_min":22,"x_max":441,"ha":461,"o":"m 195 -16 l 195 -16 q 176 -14 168 -2 q 160 10 160 28 l 160 28 q 160 50 171.5 85 q 183 120 199 159.5 q 215 199 228 232 l 228 232 q 247 279 273 346 q 299 413 330.5 487.5 q 362 562 395 631 l 395 631 l 131 630 q 91 629 68.5 611 q 46 593 46 552 l 46 552 l 22 552 l 22 700 l 441 700 l 441 632 q 405 557 378.5 489 q 352 421 331 352.5 q 310 284 291 209 q 272 134 250 45 l 250 45 q 244 21 231.5 2 q 219 -17 195 -16 z"},"8":{"x_min":59,"x_max":512,"ha":562,"o":"m 276 -16 l 276 -16 q 241 -16 203 -7.5 q 165 1 132.5 20 q 100 39 79.5 71 q 59 103 59 150 l 59 150 q 59 195 81 232.5 q 103 270 137.5 300.5 q 172 331 211 355 l 211 355 q 135 401 104 446.5 q 73 492 73 535 l 73 535 q 73 582 91.5 616.5 q 110 651 141 673 q 172 695 209.5 705.5 q 247 716 285 716 l 285 716 q 336 716 380.5 697.5 q 425 679 452.5 643 q 480 607 480 555 l 480 555 q 480 516 461.5 483 q 443 450 412.5 424.5 q 382 399 345 380 l 345 380 q 390 354 428 320.5 q 466 287 489 248 q 512 209 512 166 l 512 166 q 512 103 479 62.5 q 446 22 392 3 q 338 -16 276 -16 z m 278 24 l 278 24 q 343 23 378.5 56 q 414 89 414 147 l 414 147 q 414 199 377.5 248.5 q 341 298 249 337 l 249 337 q 194 297 169.5 251 q 145 205 143 168 l 143 168 q 139 104 176.5 64.5 q 214 25 278 24 z m 310 400 l 310 400 q 354 430 377.5 468 q 401 506 402 543 l 402 543 q 404 608 372 642 q 340 676 287 677 l 287 677 q 248 678 221 660.5 q 194 643 180 615.5 q 166 588 166 557 l 166 557 q 166 502 207.5 461.5 q 249 421 310 400 z"},"9":{"x_min":48,"x_max":519,"ha":578,"o":"m 257 -16 l 257 -16 q 192 -16 151.5 3.5 q 111 23 93 52 q 75 81 75 107 l 75 107 q 75 129 86 144 q 97 159 119 160 l 119 160 q 143 161 153.5 145.5 q 164 130 164 117 l 164 117 q 164 107 160.5 96.5 q 157 86 150 76 l 150 76 q 157 54 180.5 38 q 204 22 252 22 l 252 22 q 298 22 329 44 q 360 66 379 102.5 q 398 139 408 182.5 q 418 226 421.5 269 q 425 312 425 346 l 425 346 q 400 312 358 287 q 316 262 257 262 l 257 262 q 197 262 156.5 282.5 q 116 303 92.5 336 q 69 369 58.5 408 q 48 447 48 485 l 48 485 q 48 550 77 602.5 q 106 655 159 685.5 q 212 716 284 716 l 284 716 q 355 716 400.5 689 q 446 662 472 613.5 q 498 565 508.5 500 q 519 435 519 359 l 519 359 q 519 315 513.5 264.5 q 508 214 492.5 164.5 q 477 115 448 74.5 q 419 34 372 9 q 325 -16 257 -16 z m 278 307 l 278 307 q 310 307 339.5 322.5 q 369 338 392 363 q 415 388 424 417 l 424 417 q 421 464 413 510 q 405 556 388.5 594 q 372 632 345 655 q 318 678 277 678 l 277 678 q 234 678 205 653.5 q 176 629 161.5 590 q 147 551 147 507 l 147 507 q 147 479 152 444.5 q 157 410 170.5 378.5 q 184 347 210 327 q 236 307 278 307 z"},"A":{"x_min":-6,"x_max":638,"ha":626,"o":"m 181 0 l -6 0 l -6 33 q 24 33 40 49 q 56 65 66.5 93 q 77 121 91 158 l 91 158 l 297 719 l 321 719 l 544 150 q 552 129 562 96 q 572 63 570 40 l 570 40 q 587 41 604 42 q 621 43 638 44 l 638 44 l 638 0 l 409 0 l 409 33 q 447 34 459 50 q 471 66 468 88 q 465 110 458 128 l 458 128 l 423 222 l 163 216 l 128 109 q 121 85 115.5 71 q 110 57 103 40 l 103 40 q 123 41 142.5 42 q 162 43 181 44 l 181 44 l 181 0 z m 249 460 l 178 259 l 409 259 l 338 450 q 327 481 315.5 511.5 q 304 542 293 573 l 293 573 l 291 573 q 281 545 270.5 517 q 260 489 249 460 l 249 460 z"},"B":{"x_min":55,"x_max":583,"ha":622,"o":"m 347 0 l 55 0 l 55 33 q 93 34 107 50.5 q 121 67 122.5 95.5 q 124 124 124 161 l 124 161 l 124 581 q 124 608 125 627.5 q 126 647 127 660 l 127 660 q 109 659 91 658 q 73 657 55 656 l 55 656 l 55 700 q 110 701 165.5 701.5 q 221 702 281 702 l 281 702 q 397 702 462.5 661 q 528 620 526 531 l 526 531 q 526 499 507.5 467 q 489 435 452.5 410.5 q 416 386 361 376 l 361 376 l 361 374 q 471 374 527 323.5 q 583 273 583 196 l 583 196 q 583 135 552 91 q 521 47 468 23.5 q 415 0 347 0 l 347 0 z m 208 40 l 208 40 q 224 39 246.5 38.5 q 269 38 288.5 38 q 308 38 314 38 l 314 38 q 391 38 438.5 76.5 q 486 115 486 190 l 486 190 q 486 251 462 285 q 438 319 399 333 q 360 347 314 347 l 314 347 q 284 347 259.5 346.5 q 235 346 211 344 l 211 344 l 211 118 q 211 91 210.5 72 q 210 53 208 40 z m 211 569 l 211 383 l 284 385 q 341 386 374 408.5 q 407 431 421.5 465 q 436 499 435 536 l 435 536 q 434 590 410.5 618 q 387 646 353 656 q 319 666 286 666 l 286 666 q 253 666 237 657 q 221 648 216 627 q 211 606 211 569 l 211 569 z"},"C":{"x_min":46,"x_max":669,"ha":699,"o":"m 644 477 l 608 477 q 598 571 542.5 623 q 487 675 400 675 l 400 675 q 347 675 300.5 652.5 q 254 630 219 588 q 184 546 164 487 q 144 428 144 354 l 144 354 q 144 260 180 188 q 216 116 277 76 q 338 36 412 36 l 412 36 q 477 36 540 65.5 q 603 95 643 151 l 643 151 l 669 130 q 626 71 576 39 q 526 7 476.5 -4.5 q 427 -16 386 -16 l 386 -16 q 311 -16 248.5 11 q 186 38 140.5 86.5 q 95 135 70.5 199.5 q 46 264 46 339 l 46 339 q 46 410 67.5 477 q 89 544 132 598 q 175 652 240.5 684 q 306 716 393 716 l 393 716 q 449 716 499 701 q 549 686 595 655 l 595 655 l 590 709 l 644 709 l 644 477 z"},"D":{"x_min":55,"x_max":699,"ha":745,"o":"m 55 0 l 55 33 q 93 35 107 50.5 q 121 66 122.5 93.5 q 124 121 124 156 l 124 156 l 124 588 q 124 608 125 626.5 q 126 645 127 660 l 127 660 q 109 659 91 658 q 73 657 55 656 l 55 656 l 55 700 l 291 701 q 381 701 456 680 q 531 659 585.5 615.5 q 640 572 669.5 505.5 q 699 439 699 349 l 699 349 q 699 280 675 217 q 651 154 603 105.5 q 555 57 483.5 28.5 q 412 0 318 0 l 318 0 l 55 0 z m 211 544 l 211 118 q 211 91 210.5 72 q 210 53 208 40 l 208 40 q 235 39 257.5 38.5 q 280 38 295.5 38 q 311 38 315 38 l 315 38 q 380 38 432.5 62 q 485 86 522.5 128.5 q 560 171 580.5 228.5 q 601 286 601 353 l 601 353 q 601 448 566.5 517.5 q 532 587 461 625.5 q 390 664 280 664 l 280 664 q 243 664 228.5 649 q 214 634 212.5 607 q 211 580 211 544 l 211 544 z"},"E":{"x_min":55,"x_max":577,"ha":622,"o":"m 436 259 l 403 259 q 403 303 391 322 q 379 341 353 345 q 327 349 284 347 l 284 347 l 211 344 l 211 115 q 211 88 210.5 69 q 210 50 208 37 l 208 37 l 399 40 q 443 41 475 54.5 q 507 68 525 102 q 543 136 543 195 l 543 195 l 577 195 l 571 0 l 55 0 l 55 33 q 93 35 107 50.5 q 121 66 122.5 93.5 q 124 121 124 156 l 124 156 l 124 588 q 124 608 125 626.5 q 126 645 127 660 l 127 660 q 109 659 91 658 q 73 657 55 656 l 55 656 l 55 700 l 536 700 l 541 525 l 508 525 q 508 584 490 614.5 q 472 645 441.5 655.5 q 411 666 373 665 l 373 665 l 287 663 q 250 662 234 649 q 218 636 214.5 610.5 q 211 585 211 544 l 211 544 l 211 384 l 399 383 l 392 469 l 436 469 l 436 259 z"},"F":{"x_min":55,"x_max":524,"ha":548,"o":"m 310 0 l 55 0 l 55 33 q 93 35 107 50.5 q 121 66 122.5 93.5 q 124 121 124 156 l 124 156 l 124 588 q 124 608 125 626.5 q 126 645 127 660 l 127 660 q 109 659 91 658 q 73 657 55 656 l 55 656 l 55 700 l 519 700 l 524 525 l 491 525 q 491 584 472 614.5 q 453 645 422 655.5 q 391 666 353 665 l 353 665 l 280 663 q 243 662 229 645.5 q 215 629 213 602 q 211 575 211 540 l 211 540 l 211 368 l 385 367 l 378 454 l 422 454 l 422 243 l 390 243 q 390 288 377.5 307 q 365 326 339 330 q 313 334 271 332 l 271 332 l 211 329 l 211 119 q 211 92 210.5 72.5 q 210 53 208 40 l 208 40 q 225 41 242 41.5 q 259 42 276 43 q 293 44 310 44 l 310 44 l 310 0 z"},"G":{"x_min":47,"x_max":740,"ha":761,"o":"m 387 -16 l 387 -16 q 287 -16 210 26 q 133 68 90 147 q 47 226 47 335 l 47 335 q 47 406 68.5 473.5 q 90 541 133.5 596 q 177 651 242.5 683.5 q 308 716 395 716 l 395 716 q 431 716 468 709.5 q 505 703 539.5 690.5 q 574 678 602 661 l 602 661 l 598 709 l 653 709 l 653 480 l 617 480 q 613 543 583.5 586.5 q 554 630 507 653 q 460 676 402 676 l 402 676 q 349 676 302.5 652.5 q 256 629 220.5 586.5 q 185 544 165 486 q 145 428 145 358 l 145 358 q 145 264 179 190 q 213 116 273.5 74 q 334 32 413 32 l 413 32 q 440 32 469.5 37 q 499 42 528.5 53.5 q 558 65 584 82 l 584 82 l 584 204 q 584 228 584 252.5 q 584 277 584 301 l 584 301 q 567 300 549 299 q 531 298 514 297 l 514 297 l 514 341 l 740 341 l 740 308 q 712 308 697 293.5 q 682 279 676 258.5 q 670 238 669 218.5 q 668 199 668 189 l 668 189 l 668 36 l 641 36 q 625 36 597 30 q 569 24 533 10 l 533 10 q 502 -2 461 -9 q 420 -16 387 -16 z"},"H":{"x_min":55,"x_max":725,"ha":780,"o":"m 280 0 l 55 0 l 55 33 q 93 35 107 50.5 q 121 66 122.5 93.5 q 124 121 124 156 l 124 156 l 124 588 q 124 608 125 626.5 q 126 645 127 660 l 127 660 q 109 659 91 658 q 73 657 55 656 l 55 656 l 55 700 l 280 700 l 280 667 q 243 666 228.5 650 q 214 634 212.5 607 q 211 580 211 544 l 211 544 l 211 378 l 569 378 l 569 588 q 569 608 570 626.5 q 571 645 572 660 l 572 660 q 554 659 536 658 q 518 657 500 656 l 500 656 l 500 700 l 725 700 l 725 667 q 688 666 673.5 650 q 659 634 657.5 607 q 656 580 656 544 l 656 544 l 656 119 q 656 92 655.5 72.5 q 655 53 653 40 l 653 40 q 671 41 689 42 q 707 43 725 44 l 725 44 l 725 0 l 500 0 l 500 33 q 538 35 552 50.5 q 566 66 567.5 93.5 q 569 121 569 156 l 569 156 l 569 338 l 211 334 l 211 119 q 211 92 210.5 72.5 q 210 53 208 40 l 208 40 q 226 41 244 42 q 262 43 280 44 l 280 44 l 280 0 z"},"I":{"x_min":55,"x_max":280,"ha":335,"o":"m 280 700 l 280 667 q 243 666 228.5 650 q 214 634 212.5 607 q 211 580 211 544 l 211 544 l 211 119 q 211 92 210.5 72.5 q 210 53 208 40 l 208 40 q 226 41 244 42 q 262 43 280 44 l 280 44 l 280 0 l 55 0 l 55 33 q 93 35 107 50.5 q 121 66 122.5 93.5 q 124 121 124 156 l 124 156 l 124 588 q 124 608 125 626.5 q 126 645 127 660 l 127 660 q 109 659 91 658 q 73 657 55 656 l 55 656 l 55 700 l 280 700 z"},"J":{"x_min":-2,"x_max":343,"ha":373,"o":"m 104 -16 l 104 -16 q 76 -16 52 -7.5 q 28 1 13 17 q -2 33 -2 55 l -2 55 q -2 75 8.5 90.5 q 19 106 41 107 l 41 107 q 66 109 75.5 93.5 q 85 78 85 63 l 85 63 q 85 59 84 52.5 q 83 46 81 41 l 81 41 q 87 31 100 27.5 q 113 24 120 25 l 120 25 q 150 26 164.5 52 q 179 78 179 139 l 179 139 l 179 571 q 179 594 179 616 q 179 638 179 660 l 179 660 q 154 659 128.5 658 q 103 657 77 656 l 77 656 l 77 700 l 343 700 l 343 667 q 310 667 293.5 654 q 277 641 271.5 618.5 q 266 596 266 568 l 266 568 l 266 244 q 266 103 228 43.5 q 190 -16 104 -16 z"},"K":{"x_min":55,"x_max":678,"ha":683,"o":"m 280 0 l 55 0 l 55 33 q 93 35 107 50.5 q 121 66 122.5 93.5 q 124 121 124 156 l 124 156 l 124 588 q 124 608 125 626.5 q 126 645 127 660 l 127 660 q 109 659 91 658 q 73 657 55 656 l 55 656 l 55 700 l 280 700 l 280 667 q 243 666 228.5 650 q 214 634 212.5 607 q 211 580 211 544 l 211 544 l 211 380 l 286 380 l 411 577 q 424 597 443 621 q 462 645 482 661 l 482 661 q 467 660 451.5 660 q 436 660 421 659 l 421 659 l 421 700 l 636 700 l 636 667 q 594 664 561 653 q 528 642 498 614.5 q 468 587 434 532 l 434 532 l 336 376 q 365 359 383 336.5 q 401 314 419 291 l 419 291 l 531 142 q 569 92 593.5 68.5 q 618 45 637.5 39 q 657 33 678 33 l 678 33 l 678 0 l 556 0 q 546 0 529.5 14 q 513 28 494 50.5 q 475 73 455 98 l 455 98 l 335 260 q 316 285 297 307.5 q 278 330 260 341 l 260 341 l 211 340 l 211 119 q 211 92 210.5 72.5 q 210 53 208 40 l 208 40 q 226 41 244 42 q 262 43 280 44 l 280 44 l 280 0 z"},"L":{"x_min":55,"x_max":557,"ha":578,"o":"m 551 0 l 55 0 l 55 33 q 93 35 107 50.5 q 121 66 122.5 93.5 q 124 121 124 156 l 124 156 l 124 588 q 124 608 125 626.5 q 126 645 127 660 l 127 660 q 109 659 91 658 q 73 657 55 656 l 55 656 l 55 700 l 280 700 l 280 667 q 243 666 228.5 650 q 214 634 212.5 607 q 211 580 211 544 l 211 544 l 211 115 q 211 88 210.5 69 q 210 50 208 37 l 208 37 l 395 40 q 458 41 490.5 80 q 523 119 523 207 l 523 207 l 557 207 l 551 0 z"},"M":{"x_min":44,"x_max":884,"ha":918,"o":"m 462 -10 l 432 -10 q 388 90 343 189.5 q 298 289 255 391 l 255 391 q 241 423 227.5 455.5 q 214 488 201.5 521 q 189 554 176 587 l 176 587 q 176 576 175.5 565 q 175 554 175 543 l 175 543 q 174 507 172.5 456.5 q 171 406 169 348.5 q 167 291 166 233.5 q 165 176 164 125 l 164 125 q 163 103 162.5 81 q 162 59 160 40 l 160 40 q 179 41 197.5 42 q 216 43 235 44 l 235 44 l 235 0 l 44 0 l 44 33 q 75 34 89.5 46.5 q 104 59 108 80 q 112 101 113 125 l 113 125 l 132 581 q 133 601 133.5 621 q 134 641 135 660 l 135 660 q 117 659 99 658.5 q 81 658 63 657 l 63 657 l 63 700 l 216 700 l 388 303 q 401 273 413.5 243 q 426 213 439.5 183 q 453 153 466 122 l 466 122 l 468 122 q 479 149 494 186.5 q 509 224 519 251 l 519 251 q 563 361 610.5 471.5 q 658 582 704 700 l 704 700 l 852 700 l 852 667 q 827 668 811 657.5 q 795 647 788 623 q 781 599 783 558 l 783 558 l 809 103 q 811 86 811 70 q 811 54 811 41 l 811 41 q 829 42 847.5 42.5 q 866 43 884 44 l 884 44 l 884 0 l 660 0 l 660 33 q 691 34 706 48 q 721 62 724.5 88 q 728 114 726 152 l 726 152 l 706 482 q 705 498 704 514 q 703 530 702 546 q 701 562 700 578 l 700 578 q 697 571 693.5 563 q 690 555 687 546 l 687 546 l 462 -10 z"},"N":{"x_min":57,"x_max":719,"ha":762,"o":"m 650 -16 l 602 -16 l 203 520 q 194 532 185.5 543.5 q 177 555 168 567 l 168 567 l 167 567 l 170 139 q 170 114 170 89 q 170 64 168 40 l 168 40 q 186 41 204 42 q 222 43 240 44 l 240 44 l 240 0 l 57 0 l 57 33 q 88 33 101.5 46.5 q 115 60 119 78.5 q 123 97 123 112 l 123 112 l 124 593 q 124 610 124 627 q 124 644 124 660 l 124 660 q 108 659 91 658 q 74 657 57 656 l 57 656 l 57 700 l 176 700 l 551 198 q 564 181 576.5 164 q 589 147 602 130 l 602 130 l 603 130 l 604 588 q 604 608 605 626.5 q 606 645 607 660 l 607 660 q 589 659 571 658 q 553 657 535 656 l 535 656 l 535 700 l 719 700 l 719 667 q 682 666 668 650 q 654 634 653 607 q 652 580 652 544 l 652 544 l 650 -16 z"},"O":{"x_min":46,"x_max":750,"ha":794,"o":"m 402 -16 l 402 -16 q 307 -16 239 16 q 171 48 128.5 101.5 q 86 155 66 220 q 46 285 46 350 l 46 350 q 46 413 67 477.5 q 88 542 131.5 596 q 175 650 240.5 683 q 306 716 394 716 l 394 716 q 486 716 553 683 q 620 650 663.5 595.5 q 707 541 728.5 477 q 750 413 750 350 l 750 350 q 750 288 729 223.5 q 708 159 664.5 104.5 q 621 50 556 17 q 491 -16 402 -16 z m 404 25 l 404 25 q 466 25 512 51.5 q 558 78 588.5 122.5 q 619 167 634.5 221.5 q 650 276 650 331 l 650 331 q 650 393 633 454 q 616 515 583 565 q 550 615 501.5 645.5 q 453 676 391 676 l 391 676 q 329 676 282.5 649 q 236 622 205.5 577.5 q 175 533 159.5 478.5 q 144 424 144 368 l 144 368 q 144 313 159.5 253 q 175 193 207 141 q 239 89 288 57 q 337 25 404 25 z"},"P":{"x_min":55,"x_max":582,"ha":606,"o":"m 55 0 l 55 33 q 93 35 107 50.5 q 121 66 122.5 93.5 q 124 121 124 156 l 124 156 l 124 588 q 124 608 125 626.5 q 126 645 127 660 l 127 660 q 109 659 91 658 q 73 657 55 656 l 55 656 l 55 700 q 108 701 164 701.5 q 220 702 278 702 l 278 702 q 375 702 441 680 q 507 658 542 615 q 577 572 580 508 l 580 508 q 582 469 568.5 426.5 q 555 384 518.5 346.5 q 482 309 416 286 q 350 263 247 263 l 247 263 q 243 263 232 263 q 221 263 211 264 l 211 264 l 211 119 q 211 92 210.5 72.5 q 210 53 208 40 l 208 40 q 224 41 239 42 q 254 43 269.5 43.5 q 285 44 300 45 l 300 45 l 300 0 l 55 0 z m 211 544 l 211 305 q 230 303 243.5 302.5 q 257 302 276 302 l 276 302 q 333 302 380 324.5 q 427 347 455 389 q 483 431 483 489 l 483 489 q 483 536 468 569.5 q 453 603 425.5 623.5 q 398 644 360 653.5 q 322 663 276 663 l 276 663 q 241 663 227.5 648 q 214 633 212.5 606.5 q 211 580 211 544 l 211 544 z"},"Q":{"x_min":46,"x_max":786,"ha":796,"o":"m 786 -218 l 754 -218 q 718 -218 691.5 -215.5 q 665 -213 640.5 -201.5 q 616 -190 585 -162 l 585 -162 q 540 -121 509.5 -88 q 479 -55 453 -35.5 q 427 -16 395 -16 l 395 -16 q 302 -14 235.5 18.5 q 169 51 127 104 q 85 157 65.5 221.5 q 46 286 46 350 l 46 350 q 46 413 67 477.5 q 88 542 131.5 596 q 175 650 240.5 683 q 306 716 394 716 l 394 716 q 486 716 553 683 q 620 650 663.5 595.5 q 707 541 728.5 477 q 750 413 750 350 l 750 350 q 750 295 733.5 238.5 q 717 182 684 131.5 q 651 81 601 44.5 q 551 8 483 -7 l 483 -7 q 508 -7 529.5 -11.5 q 551 -16 574 -29.5 q 597 -43 626 -71 l 626 -71 q 661 -103 685 -125 q 709 -147 726 -160 q 743 -173 757 -179 q 771 -185 786 -185 l 786 -185 l 786 -218 z m 404 25 l 404 25 q 466 25 512 51.5 q 558 78 588.5 122.5 q 619 167 634.5 221.5 q 650 276 650 331 l 650 331 q 650 393 633 454 q 616 515 583 565 q 550 615 501.5 645.5 q 453 676 391 676 l 391 676 q 329 676 282.5 649 q 236 622 205.5 577.5 q 175 533 159.5 478.5 q 144 424 144 368 l 144 368 q 144 313 159.5 253 q 175 193 207 141 q 239 89 288 57 q 337 25 404 25 z"},"R":{"x_min":55,"x_max":628,"ha":628,"o":"m 280 0 l 55 0 l 55 33 q 93 35 107 50.5 q 121 66 122.5 93.5 q 124 121 124 156 l 124 156 l 124 588 q 124 608 125 626.5 q 126 645 127 660 l 127 660 q 109 659 91 658 q 73 657 55 656 l 55 656 l 55 700 q 111 701 168.5 702 q 226 703 284 701 l 284 701 q 381 700 440.5 678.5 q 500 657 528 617.5 q 556 578 556 522 l 556 522 q 557 483 541.5 442.5 q 526 402 485.5 370 q 445 338 369 322 l 369 322 q 389 308 404 286 q 419 264 438 235 l 438 235 l 506 128 q 523 101 539 79.5 q 555 58 576 45.5 q 597 33 628 33 l 628 33 l 628 0 l 502 0 q 473 26 453.5 52 q 434 78 413 111 l 413 111 l 346 218 q 333 239 316.5 266.5 q 300 294 279 313 l 279 313 q 263 312 245.5 312 q 228 312 211 313 l 211 313 l 211 119 q 211 92 210.5 72.5 q 210 53 208 40 l 208 40 q 220 41 232 41.5 q 244 42 256 43 q 268 44 280 44 l 280 44 l 280 0 z m 273 350 l 273 350 q 328 352 369.5 368 q 411 384 435 419 q 459 454 459 511 l 459 511 q 459 549 448.5 577.5 q 438 606 416 625 q 394 644 360 653.5 q 326 663 280 663 l 280 663 q 243 663 228.5 648 q 214 633 212.5 606.5 q 211 580 211 544 l 211 544 l 211 352 q 227 351 241.5 350 q 256 349 273 350 z"},"S":{"x_min":58,"x_max":523,"ha":567,"o":"m 484 488 l 448 488 q 445 536 425 579 q 405 622 367 649 q 329 676 270 676 l 270 676 q 208 676 175 641 q 142 606 142 559 l 142 559 q 142 517 166 488.5 q 190 460 228.5 438.5 q 267 417 310 397 l 310 397 q 348 380 386 360.5 q 424 341 455 316 q 486 291 504.5 256.5 q 523 222 523 174 l 523 174 q 523 119 495.5 76 q 468 33 416 8.5 q 364 -16 289 -16 l 289 -16 q 244 -16 196 -3 q 148 10 111 35 l 111 35 l 116 -8 l 64 -8 l 58 205 l 97 205 q 102 117 158 71.5 q 214 26 293 26 l 293 26 q 332 26 365 40.5 q 398 55 417.5 83 q 437 111 437 151 l 437 151 q 437 196 413 226 q 389 256 351 278 q 313 300 270 320 l 270 320 q 232 337 195 356 q 158 375 127.5 399.5 q 97 424 78.5 458 q 60 492 60 540 l 60 540 q 60 566 69 596 q 78 626 100.5 653.5 q 123 681 162.5 698.5 q 202 716 263 716 l 263 716 q 301 716 348.5 705.5 q 396 695 437 665 l 437 665 l 433 708 l 484 708 l 484 488 z"},"T":{"x_min":22,"x_max":617,"ha":640,"o":"m 617 489 l 579 489 q 578 548 567 587 q 556 626 528.5 645.5 q 501 665 449 664 l 449 664 l 364 664 l 363 119 q 363 92 362.5 72.5 q 362 53 360 40 l 360 40 q 381 41 401.5 42 q 422 43 443 44 l 443 44 l 443 0 l 208 0 l 208 33 q 246 35 259.5 51 q 273 67 274.5 94.5 q 276 122 276 156 l 276 156 l 277 663 l 174 662 q 111 662 85 620 q 59 578 59 489 l 59 489 l 22 489 l 28 700 l 611 700 l 617 489 z"},"U":{"x_min":31,"x_max":722,"ha":752,"o":"m 255 700 l 255 667 q 222 667 207.5 653 q 193 639 190 620.5 q 187 602 187 588 l 187 588 l 187 336 q 187 280 194.5 227.5 q 202 175 223 133 q 244 91 285.5 66 q 327 41 394 41 l 394 41 q 466 41 511.5 75 q 557 109 578.5 169 q 600 229 601 307 l 601 307 l 604 588 q 604 608 605 626.5 q 606 645 607 660 l 607 660 q 589 659 571.5 658 q 554 657 536 656 l 536 656 l 536 700 l 722 700 l 722 667 q 684 666 670 650 q 656 634 654.5 607 q 653 580 652 544 l 652 544 l 650 312 q 650 247 636 188 q 622 129 590.5 83 q 559 37 507.5 10.5 q 456 -16 381 -16 l 381 -16 q 301 -16 246.5 5 q 192 26 159.5 70 q 127 114 113 181 q 99 248 99 341 l 99 341 l 99 544 q 99 570 100.5 605.5 q 102 641 103 660 l 103 660 q 85 659 67 658.5 q 49 658 31 657 l 31 657 l 31 700 l 255 700 z"},"V":{"x_min":-4,"x_max":671,"ha":653,"o":"m 350 -10 l 322 -10 l 95 522 q 73 573 64 604.5 q 55 636 52 658 l 52 658 q 38 657 24 657 q 10 657 -4 656 l -4 656 l -4 700 l 228 700 l 227 666 q 177 663 167 635.5 q 157 608 177 558 l 177 558 q 201 499 223 444 q 245 389 272 325 l 272 325 q 296 269 318.5 217.5 q 341 166 353 132 l 353 132 l 355 132 q 366 167 377.5 199 q 389 231 405 275 l 405 275 q 435 359 455.5 417 q 476 475 491 516 q 506 557 516 586 l 516 586 q 525 612 532 630 q 539 648 545 660 l 545 660 q 526 659 507 658 q 488 657 468 656 l 468 656 l 468 700 l 671 700 l 671 667 q 627 665 603.5 644 q 580 623 561 569 l 561 569 q 559 564 556 555.5 q 553 547 546 528 q 539 509 526 472.5 q 513 436 490.5 374 q 468 312 433.5 218 q 399 124 350 -10 l 350 -10 z"},"W":{"x_min":7,"x_max":1010,"ha":995,"o":"m 313 -10 l 284 -10 l 105 522 q 88 575 78 605.5 q 68 636 63 658 l 63 658 q 49 657 35 657 q 21 657 7 656 l 7 656 l 7 700 l 250 700 l 250 667 q 192 664 180.5 641 q 169 618 185 558 l 185 558 q 202 492 222 439 q 242 386 261 325 l 261 325 q 275 280 289.5 242 q 304 204 319 157 l 319 157 l 321 157 q 326 174 331.5 193 q 337 212 343 230 q 349 248 354 263.5 q 359 279 362 289 l 362 289 q 390 378 417.5 461.5 q 445 545 466 608.5 q 487 672 495 702 l 495 702 l 527 702 q 536 669 553 618 q 570 567 589 511 q 608 455 624.5 405 q 641 355 651 325 l 651 325 q 665 280 680.5 236 q 696 192 709 145 l 709 145 l 712 145 q 721 174 731.5 207 q 742 240 753 274 l 753 274 q 779 348 795.5 398 q 812 448 822.5 481 q 833 514 840.5 538.5 q 848 563 856 586 l 856 586 q 862 603 869.5 622.5 q 877 642 887 659 l 887 659 q 867 658 847 657.5 q 827 657 807 656 l 807 656 l 807 700 l 1010 700 l 1010 667 q 976 663 956.5 652 q 937 641 922 611 q 907 581 886 519 l 886 519 q 840 383 796.5 251.5 q 753 120 706 -10 l 706 -10 l 676 -10 l 524 424 q 515 450 506.5 475 q 498 500 489 525 l 489 525 q 481 500 472.5 475 q 464 450 456 425 l 456 425 l 313 -10 z"},"X":{"x_min":9,"x_max":656,"ha":649,"o":"m 208 0 l 12 0 l 12 33 q 60 43 87.5 73.5 q 115 104 149 153 l 149 153 l 279 339 q 210 436 171 490.5 q 132 545 110 576 l 110 576 q 91 605 81.5 622 q 72 639 64 658 l 64 658 q 51 657 37 657 q 23 657 9 656 l 9 656 l 9 700 l 268 700 l 268 667 l 224 665 q 188 664 180.5 651.5 q 173 639 181.5 621 q 190 603 201 584 l 201 584 q 219 554 252.5 506.5 q 286 459 325 405 l 325 405 l 421 544 q 447 580 470.5 613 q 494 646 510 660 l 510 660 q 489 659 468 658 q 447 657 426 656 l 426 656 l 426 700 l 623 700 l 623 667 q 591 663 563 641 q 535 619 511 588.5 q 487 558 466 528 l 466 528 l 353 368 q 389 320 423.5 274.5 q 458 229 486 192.5 q 514 156 529 135 l 529 135 q 546 112 563.5 88.5 q 581 65 598 42 l 598 42 q 612 43 627 43 q 642 43 656 44 l 656 44 l 656 0 l 411 0 l 411 33 q 450 32 462 43.5 q 474 55 469.5 72.5 q 465 90 453 106 l 453 106 q 430 137 391 186.5 q 352 236 306 300 l 306 300 q 281 264 256.5 227.5 q 232 191 207 153 l 207 153 q 189 126 169.5 97 q 150 68 125 39 l 125 39 q 146 41 166.5 42 q 187 43 208 44 l 208 44 l 208 0 z"},"Y":{"x_min":-6,"x_max":644,"ha":634,"o":"m 450 0 l 215 0 l 215 33 q 253 35 266.5 51 q 280 67 281.5 94.5 q 283 122 283 156 l 283 156 l 284 270 l 110 545 q 85 585 72.5 612 q 60 639 56 658 l 56 658 q 40 657 25 657 q 10 657 -6 656 l -6 656 l -6 700 l 252 700 l 252 667 q 206 667 188 653 q 170 639 174.5 614.5 q 179 590 199 558 l 199 558 l 279 432 q 288 418 298 403 q 308 388 318.5 372.5 q 329 357 341 340 l 341 340 l 343 340 q 354 362 365 382.5 q 376 403 386 422 l 386 422 l 471 583 q 476 593 483.5 606.5 q 491 620 500 634.5 q 509 649 519 659 l 519 659 q 500 658 480 657.5 q 460 657 440 656 l 440 656 l 440 700 l 644 700 l 644 667 q 595 664 563.5 633 q 532 602 497 538 l 497 538 q 463 474 431.5 415 q 400 356 371 300 l 371 300 q 371 282 370.5 252 q 370 222 370 191.5 q 370 161 370 140 q 370 119 370 119 l 370 119 q 370 92 369.5 72.5 q 369 53 367 40 l 367 40 q 388 41 408.5 42 q 429 43 450 44 l 450 44 l 450 0 z"},"Z":{"x_min":43,"x_max":562,"ha":610,"o":"m 556 0 l 43 0 l 43 46 q 99 125 186.5 250.5 q 274 376 398 573 l 398 573 q 412 596 427.5 618.5 q 443 641 462 663 l 462 663 l 207 659 q 148 657 118.5 618 q 89 579 89 493 l 89 493 l 55 493 l 61 700 l 557 700 l 557 665 l 198 120 q 176 88 161 69.5 q 146 51 130 37 l 130 37 l 373 41 q 439 42 483.5 81.5 q 528 121 528 205 l 528 205 l 562 205 l 556 0 z"},"a":{"x_min":34,"x_max":491,"ha":516,"o":"m 491 0 l 348 0 q 345 17 344 30 q 343 43 341 57 l 341 57 q 307 23 267.5 3.5 q 228 -16 184 -16 l 184 -16 q 108 -16 71 18.5 q 34 53 34 103 l 34 103 q 34 149 62.5 182.5 q 91 216 136.5 237.5 q 182 259 235.5 269.5 q 289 280 339 279 l 339 279 l 339 341 q 339 376 333 407 q 327 438 307 458 q 287 478 243 479 l 243 479 q 214 480 183.5 468 q 153 456 139 427 l 139 427 q 147 419 149.5 408.5 q 152 398 152 389 l 152 389 q 152 377 142 361.5 q 132 346 107 347 l 107 347 q 86 347 75 361.5 q 64 376 64 396 l 64 396 q 64 430 89.5 457 q 115 484 160 500 q 205 516 262 516 l 262 516 q 346 516 386 471.5 q 426 427 425 331 l 425 331 q 425 294 425 256.5 q 425 219 424.5 181.5 q 424 144 424 106 l 424 106 q 424 90 423 74 q 422 58 420 38 l 420 38 q 438 39 455.5 40 q 473 41 491 42 l 491 42 l 491 0 z m 339 245 l 339 245 q 305 244 267.5 236.5 q 230 229 198.5 214 q 167 199 147.5 174.5 q 128 150 129 115 l 129 115 q 131 78 153.5 59.5 q 176 41 207 41 l 207 41 q 248 41 278.5 56.5 q 309 72 339 100 l 339 100 q 338 111 338 124 q 338 137 338 151 l 338 151 q 338 156 338.5 183 q 339 210 339 245 z"},"b":{"x_min":8,"x_max":540,"ha":582,"o":"m 74 0 l 76 625 q 76 641 76.5 655.5 q 77 670 79 690 l 79 690 q 61 689 43.5 688 q 26 687 8 686 l 8 686 l 8 728 q 52 728 76.5 732 q 101 736 113.5 742 q 126 748 133 755 l 133 755 l 162 755 l 162 457 q 190 485 228.5 500.5 q 267 516 313 516 l 313 516 q 377 516 428.5 485 q 480 454 510 397 q 540 340 540 262 l 540 262 q 540 177 503 114.5 q 466 52 407 18 q 348 -16 280 -16 l 280 -16 q 246 -16 205.5 -3.5 q 165 9 133 45 l 133 45 l 109 0 l 74 0 z m 162 410 l 162 157 q 162 104 179 75.5 q 196 47 223 36 q 250 25 280 25 l 280 25 q 328 25 363 52 q 398 79 417.5 126.5 q 437 174 437 237 l 437 237 q 437 305 420 356.5 q 403 408 369 437.5 q 335 467 283 467 l 283 467 q 250 467 217.5 451.5 q 185 436 162 410 l 162 410 z"},"c":{"x_min":41,"x_max":498,"ha":532,"o":"m 288 -16 l 288 -16 q 221 -16 164.5 14.5 q 108 45 74.5 102.5 q 41 160 41 241 l 41 241 q 41 293 60 342 q 79 391 113.5 430.5 q 148 470 196 493 q 244 516 302 516 l 302 516 q 358 516 399.5 499 q 441 482 464 454 q 487 426 487 393 l 487 393 q 487 371 475 355.5 q 463 340 440 340 l 440 340 q 415 339 404.5 355.5 q 394 372 394 385 l 394 385 q 394 395 397 405.5 q 400 416 409 425 l 409 425 q 401 449 381 460.5 q 361 472 339.5 475.5 q 318 479 304 479 l 304 479 q 236 479 189.5 424.5 q 143 370 143 266 l 143 266 q 143 199 164.5 147 q 186 95 225 65.5 q 264 36 315 36 l 315 36 q 362 36 405 61 q 448 86 472 122 l 472 122 l 498 102 q 472 60 435.5 34 q 399 8 360.5 -4 q 322 -16 288 -16 z"},"d":{"x_min":42,"x_max":568,"ha":598,"o":"m 258 -16 l 258 -16 q 197 -16 148 14.5 q 99 45 70.5 102 q 42 159 42 236 l 42 236 q 42 318 75 381 q 108 444 166.5 480 q 225 516 299 516 l 299 516 q 332 516 364.5 507.5 q 397 499 416 488 l 416 488 l 416 625 q 416 641 416.5 655.5 q 417 670 419 690 l 419 690 q 401 689 383.5 688 q 366 687 348 686 l 348 686 l 348 728 q 392 728 416 732 q 440 736 452.5 742 q 465 748 472 755 l 472 755 l 501 755 l 501 106 q 501 90 500 74 q 499 58 497 38 l 497 38 q 515 39 532.5 40 q 550 41 568 42 l 568 42 l 568 0 l 425 0 q 422 15 420.5 27.5 q 419 40 418 52 l 418 52 q 390 21 349 2.5 q 308 -16 258 -16 z m 294 33 l 294 33 q 327 33 360.5 52 q 394 71 416 99 l 416 99 q 415 111 415 124.5 q 415 138 415 154 l 415 154 l 416 442 q 392 460 363.5 468.5 q 335 477 305 477 l 305 477 q 255 477 218 448 q 181 419 162 367 q 143 315 145 245 l 145 245 q 147 184 164.5 136 q 182 88 214.5 60.5 q 247 33 294 33 z"},"e":{"x_min":42,"x_max":503,"ha":542,"o":"m 286 -16 l 286 -16 q 217 -16 161.5 16.5 q 106 49 74 108.5 q 42 168 42 249 l 42 249 q 42 319 73.5 380 q 105 441 162 478.5 q 219 516 294 516 l 294 516 q 336 516 372.5 502.5 q 409 489 437 461.5 q 465 434 481 392.5 q 497 351 497 295 l 497 295 l 145 289 q 145 213 161.5 155.5 q 178 98 215 66.5 q 252 35 310 35 l 310 35 q 341 35 373.5 46 q 406 57 434 76 q 462 95 479 118 l 479 118 l 503 98 q 476 56 438 31 q 400 6 360 -5 q 320 -16 286 -16 z m 148 331 l 148 331 l 403 331 q 403 367 392.5 400.5 q 382 434 358 455.5 q 334 477 295 477 l 295 477 q 237 477 198.5 442.5 q 160 408 148 331 z"},"f":{"x_min":25,"x_max":394,"ha":338,"o":"m 107 500 l 107 521 q 107 632 147.5 696 q 188 760 287 760 l 287 760 q 309 760 333.5 752.5 q 358 745 376 728.5 q 394 712 394 686 l 394 686 q 394 667 383.5 654 q 373 641 353 641 l 353 641 q 329 640 319.5 655.5 q 310 671 310 682 l 310 682 q 310 688 311 694 q 312 700 315 707 l 315 707 q 308 716 295.5 720 q 283 724 272 724 l 272 724 q 241 724 224 706 q 207 688 200 661 q 193 634 193 605 l 193 605 l 193 500 l 328 500 l 328 461 l 193 458 l 194 106 q 194 86 193.5 70.5 q 193 55 190 38 l 190 38 q 206 39 221.5 39.5 q 237 40 253 41 l 253 41 l 253 0 l 49 0 l 49 30 q 80 30 92 45.5 q 104 61 106 88.5 q 108 116 108 152 l 108 152 l 107 457 l 25 455 l 25 500 l 107 500 z"},"g":{"x_min":35,"x_max":569,"ha":553,"o":"m 285 -271 l 285 -271 q 195 -271 140 -251 q 85 -231 60 -200 q 35 -169 35 -136 l 35 -136 q 35 -105 49.5 -81.5 q 64 -58 85.5 -41 q 107 -24 127 -16 l 127 -16 q 95 -5 76.5 13.5 q 58 32 58 63 l 58 63 q 58 98 86 128.5 q 114 159 158 166 l 158 166 q 112 188 84.5 227 q 57 266 57 318 l 57 318 q 57 378 88 422.5 q 119 467 167.5 491.5 q 216 516 268 516 l 268 516 q 301 516 334 506.5 q 367 497 395 479 l 395 479 q 405 507 423.5 529 q 442 551 466 563.5 q 490 576 516 576 l 516 576 q 542 576 555.5 562.5 q 569 549 569 526 l 569 526 q 569 519 565 509 q 561 499 551.5 492 q 542 485 526 485 l 526 485 q 509 485 498 495 q 487 505 484 520 l 484 520 q 459 516 445 496.5 q 431 477 426 454 l 426 454 q 450 432 464.5 401 q 479 370 479 335 l 479 335 q 479 279 449.5 235 q 420 191 372 166.5 q 324 142 268 142 l 268 142 q 249 142 235 144.5 q 221 147 201 147 l 201 147 q 164 147 141 129 q 118 111 125 86 l 125 86 q 133 62 174 55.5 q 215 49 284 46 l 284 46 q 361 43 416 28 q 471 13 500.5 -18.5 q 530 -50 530 -104 l 530 -104 q 530 -144 508.5 -175.5 q 487 -207 451.5 -228 q 416 -249 372.5 -260 q 329 -271 285 -271 z m 284 -232 l 284 -232 q 370 -232 418 -200 q 466 -168 466 -125 l 466 -125 q 466 -88 441 -68.5 q 416 -49 373 -41.5 q 330 -34 274 -33 l 274 -33 q 247 -32 221 -30.5 q 195 -29 171 -25 l 171 -25 q 144 -43 129 -69 q 114 -95 114 -124 l 114 -124 q 114 -173 160.5 -202.5 q 207 -232 284 -232 z m 271 178 l 271 178 q 308 178 332.5 196 q 357 214 369.5 245 q 382 276 382 315 l 382 315 q 382 359 369 397 q 356 435 330.5 458 q 305 481 266 481 l 266 481 q 212 481 182.5 440.5 q 153 400 153 340 l 153 340 q 153 292 167 255.5 q 181 219 207.5 198.5 q 234 178 271 178 z"},"h":{"x_min":26,"x_max":569,"ha":599,"o":"m 365 0 l 365 30 q 396 30 408 45.5 q 420 61 422 88.5 q 424 116 424 152 l 424 152 l 424 292 q 424 378 396.5 421 q 369 464 310 463 l 310 463 q 273 462 237.5 445 q 202 428 180 401 l 180 401 l 180 106 q 180 86 179 70.5 q 178 55 175 38 l 175 38 q 191 39 206.5 39.5 q 222 40 238 41 l 238 41 l 238 0 l 34 0 l 34 30 q 65 30 77 45.5 q 89 61 91.5 88.5 q 94 116 94 152 l 94 152 l 94 625 q 94 641 94.5 655.5 q 95 670 97 690 l 97 690 q 79 689 61.5 688 q 44 687 26 686 l 26 686 l 26 728 q 70 728 94.5 732 q 119 736 131.5 742 q 144 748 151 755 l 151 755 l 180 755 l 180 450 q 202 469 229.5 483.5 q 257 498 286.5 507 q 316 516 344 516 l 344 516 q 431 516 469.5 461.5 q 508 407 509 292 l 509 292 l 510 106 q 510 86 509.5 70.5 q 509 55 506 38 l 506 38 q 522 39 537.5 39.5 q 553 40 569 41 l 569 41 l 569 0 l 365 0 z"},"i":{"x_min":36,"x_max":248,"ha":281,"o":"m 44 0 l 44 30 q 75 30 87 45.5 q 99 61 101 88.5 q 103 116 103 152 l 103 152 l 103 380 q 103 396 104 410.5 q 105 425 107 445 l 107 445 q 89 444 71.5 443 q 54 442 36 441 l 36 441 l 36 483 q 80 483 104 487 q 128 491 140.5 497 q 153 503 160 510 l 160 510 l 189 510 l 189 106 q 189 86 188.5 70.5 q 188 55 185 38 l 185 38 q 201 39 216.5 39.5 q 232 40 248 41 l 248 41 l 248 0 l 44 0 z m 140 609 l 140 609 q 119 609 103 626 q 87 643 87 668 l 87 668 q 87 693 103.5 710.5 q 120 728 141 728 l 141 728 q 164 728 179.5 710.5 q 195 693 195 668 l 195 668 q 195 643 178.5 626 q 162 609 140 609 z"},"j":{"x_min":-88,"x_max":187,"ha":261,"o":"m -9 -271 l -9 -271 q -50 -271 -69 -254 q -88 -237 -88 -215 l -88 -215 q -88 -197 -76.5 -182.5 q -65 -168 -45 -168 l -45 -168 q -20 -167 -10.5 -182.5 q -1 -198 -1 -210 l -1 -210 q -1 -212 -1 -214.5 q -1 -217 -2 -219 l -2 -219 q 12 -225 24 -225 l 24 -225 q 53 -225 68 -204 q 83 -183 88 -151 q 93 -119 93 -86 l 93 -86 l 95 380 q 95 396 95.5 410.5 q 96 425 98 445 l 98 445 q 80 444 62.5 443 q 45 442 27 441 l 27 441 l 27 483 q 71 483 95.5 487 q 120 491 132.5 497 q 145 503 152 510 l 152 510 l 181 510 l 181 -3 q 181 -96 156 -155.5 q 131 -215 88 -243 q 45 -271 -9 -271 z m 132 609 l 132 609 q 111 609 95 626 q 79 643 79 668 l 79 668 q 79 693 95.5 710.5 q 112 728 133 728 l 133 728 q 156 728 171.5 710.5 q 187 693 187 668 l 187 668 q 187 643 170.5 626 q 154 609 132 609 z"},"k":{"x_min":26,"x_max":530,"ha":537,"o":"m 239 0 l 35 0 l 35 30 q 66 30 77.5 45.5 q 89 61 91 88.5 q 93 116 93 152 l 93 152 l 94 625 q 94 641 94.5 655.5 q 95 670 97 690 l 97 690 q 79 689 61.5 688 q 44 687 26 686 l 26 686 l 26 728 q 70 728 94 732 q 118 736 130.5 742 q 143 748 150 755 l 150 755 l 179 755 l 179 282 l 219 282 l 341 410 q 358 427 372 440.5 q 386 454 400 463 l 400 463 l 332 460 l 332 500 l 514 500 l 514 470 q 480 467 450.5 448.5 q 421 430 396.5 407 q 372 384 354 365 l 354 365 l 276 283 q 296 274 310 260 q 324 246 338 229 l 338 229 l 409 138 q 414 132 426.5 115 q 439 98 456.5 78 q 474 58 493.5 44 q 513 30 530 30 l 530 30 l 530 0 l 439 0 q 411 0 386 29 q 361 58 333 94 l 333 94 q 307 130 286.5 159.5 q 266 189 249.5 211 q 233 233 220 245 l 220 245 l 179 243 l 179 106 q 179 86 178.5 70.5 q 178 55 175 38 l 175 38 q 191 39 207 39.5 q 223 40 239 41 l 239 41 l 239 0 z"},"l":{"x_min":25,"x_max":238,"ha":272,"o":"m 34 0 l 34 30 q 65 30 77 45.5 q 89 61 91 88.5 q 93 116 93 152 l 93 152 l 93 625 q 93 641 93.5 655.5 q 94 670 96 690 l 96 690 q 78 689 60.5 688 q 43 687 25 686 l 25 686 l 25 728 q 69 728 93.5 732 q 118 736 130.5 742 q 143 748 150 755 l 150 755 l 179 755 l 180 106 q 180 86 179 70.5 q 178 55 175 38 l 175 38 q 191 39 206.5 39.5 q 222 40 238 41 l 238 41 l 238 0 l 34 0 z"},"m":{"x_min":36,"x_max":862,"ha":894,"o":"m 248 0 l 44 0 l 44 30 q 75 30 87 45.5 q 99 61 101 88.5 q 103 116 103 152 l 103 152 l 103 380 q 103 396 103.5 412 q 104 428 107 445 l 107 445 q 89 444 71.5 443 q 54 442 36 441 l 36 441 l 36 483 q 80 483 102.5 487 q 125 491 136 497 q 147 503 154 510 l 154 510 l 183 510 q 185 500 185.5 487 q 186 474 187 457 l 187 457 q 217 483 256 499.5 q 295 516 334 516 l 334 516 q 384 516 418 498 q 452 480 471 449 l 471 449 q 505 477 549.5 496.5 q 594 516 637 516 l 637 516 q 724 516 765 463.5 q 806 411 804 292 l 804 292 l 803 106 q 803 86 802.5 70.5 q 802 55 799 38 l 799 38 q 815 39 830.5 39.5 q 846 40 862 41 l 862 41 l 862 0 l 658 0 l 658 30 q 689 30 701 45.5 q 713 61 715 88.5 q 717 116 717 152 l 717 152 l 717 292 q 717 378 689.5 421 q 662 464 603 463 l 603 463 q 572 463 541 449 q 510 435 487 414 l 487 414 q 492 398 494.5 379.5 q 497 361 497 341 l 497 341 q 496 283 496 224 q 496 165 495 106 l 495 106 q 495 86 494.5 70.5 q 494 55 491 38 l 491 38 q 507 39 522.5 39.5 q 538 40 554 41 l 554 41 l 554 0 l 350 0 l 350 30 q 381 30 392.5 45.5 q 404 61 406.5 88.5 q 409 116 409 152 l 409 152 l 410 292 q 411 378 385 422 q 359 466 300 465 l 300 465 q 269 465 239 451.5 q 209 438 188 417 l 188 417 q 188 405 188.5 391.5 q 189 378 189 363 l 189 363 l 189 106 q 189 86 188.5 70.5 q 188 55 185 38 l 185 38 q 201 39 216.5 39.5 q 232 40 248 41 l 248 41 l 248 0 z"},"n":{"x_min":37,"x_max":577,"ha":607,"o":"m 248 0 l 44 0 l 44 30 q 75 30 87 45.5 q 99 61 101 88.5 q 103 116 103 152 l 103 152 l 104 380 q 104 396 104.5 412 q 105 428 108 445 l 108 445 q 90 444 72.5 443 q 55 442 37 441 l 37 441 l 37 483 q 81 483 103.5 487 q 126 491 137 497 q 148 503 155 510 l 155 510 l 184 510 q 185 503 185.5 494 q 186 485 187 474 q 188 463 188 449 l 188 449 q 210 468 236.5 483 q 263 498 292.5 507 q 322 516 351 516 l 351 516 q 438 516 478 461.5 q 518 407 518 292 l 518 292 l 518 106 q 518 86 517.5 70.5 q 517 55 514 38 l 514 38 q 530 39 545.5 39.5 q 561 40 577 41 l 577 41 l 577 0 l 373 0 l 373 30 q 404 30 416 45.5 q 428 61 430 88.5 q 432 116 432 152 l 432 152 l 432 292 q 431 378 403.5 422 q 376 466 317 465 l 317 465 q 281 464 246.5 446 q 212 428 189 400 l 189 400 q 190 392 190 382 q 190 372 190 361 l 190 361 l 189 106 q 189 86 188.5 70.5 q 188 55 185 38 l 185 38 q 201 39 216.5 39.5 q 232 40 248 41 l 248 41 l 248 0 z"},"o":{"x_min":41,"x_max":544,"ha":585,"o":"m 292 -16 l 292 -16 q 222 -16 165 16.5 q 108 49 74.5 106.5 q 41 164 41 238 l 41 238 q 41 317 74 380 q 107 443 164 479.5 q 221 516 292 516 l 292 516 q 362 516 419 482.5 q 476 449 510 392 q 544 335 544 262 l 544 262 q 544 185 510.5 121.5 q 477 58 420 21 q 363 -16 292 -16 z m 300 24 l 300 24 q 353 24 384 54 q 415 84 428.5 132 q 442 180 442 233 l 442 233 q 442 278 433.5 321.5 q 425 365 407 400.5 q 389 436 360.5 457 q 332 478 292 478 l 292 478 q 240 478 207 448 q 174 418 158.5 370 q 143 322 143 267 l 143 267 q 143 205 160 149.5 q 177 94 212 59 q 247 24 300 24 z"},"p":{"x_min":29,"x_max":555,"ha":597,"o":"m 239 -255 l 35 -255 l 35 -225 q 66 -225 78 -209.5 q 90 -194 92 -166.5 q 94 -139 94 -103 l 94 -103 l 96 380 q 96 396 96.5 412 q 97 428 100 445 l 100 445 q 82 444 64.5 443 q 47 442 29 441 l 29 441 l 29 483 q 73 483 95.5 487 q 118 491 128.5 497 q 139 503 146 510 l 146 510 l 176 510 q 177 500 178 486.5 q 179 473 180 456 l 180 456 q 210 483 251.5 499.5 q 293 516 335 516 l 335 516 q 393 516 443 486 q 493 456 524 400.5 q 555 345 555 268 l 555 268 q 555 183 519.5 119 q 484 55 426 19.5 q 368 -16 300 -16 l 300 -16 q 265 -16 235.5 -7.5 q 206 1 180 17 l 180 17 l 180 -149 q 180 -169 179.5 -184.5 q 179 -200 176 -217 l 176 -217 q 192 -216 207.5 -215.5 q 223 -215 239 -214 l 239 -214 l 239 -255 z m 298 24 l 298 24 q 346 24 380.5 53.5 q 415 83 433.5 134.5 q 452 186 452 252 l 452 252 q 452 306 436.5 355.5 q 421 405 387.5 436 q 354 467 299 467 l 299 467 q 265 467 233.5 450.5 q 202 434 181 411 l 181 411 q 181 407 181.5 399.5 q 182 392 182 373.5 q 182 355 182 318.5 q 182 282 181.5 220 q 181 158 181 63 l 181 63 q 206 44 235.5 34 q 265 24 298 24 z"},"q":{"x_min":42,"x_max":561,"ha":576,"o":"m 561 -255 l 357 -255 l 357 -225 q 388 -225 400 -209.5 q 412 -194 414 -166.5 q 416 -139 416 -103 l 416 -103 l 416 47 q 390 17 352 0.5 q 314 -16 266 -16 l 266 -16 q 204 -16 153 15.5 q 102 47 72 104.5 q 42 162 42 239 l 42 239 q 42 323 76.5 385 q 111 447 169.5 481.5 q 228 516 299 516 l 299 516 q 341 516 375.5 505 q 410 494 435 494 l 435 494 q 446 494 455.5 497.5 q 465 501 473 510 l 473 510 l 501 510 l 502 -149 q 502 -169 501.5 -184.5 q 501 -200 498 -217 l 498 -217 q 514 -216 529.5 -215.5 q 545 -215 561 -214 l 561 -214 l 561 -255 z m 302 33 l 302 33 q 335 33 365.5 51 q 396 69 416 97 l 416 97 l 416 359 q 416 399 405 425.5 q 394 452 369 465.5 q 344 479 301 479 l 301 479 q 253 479 218 452 q 183 425 164 376.5 q 145 328 145 263 l 145 263 q 145 199 163.5 147 q 182 95 217.5 64 q 253 33 302 33 z"},"r":{"x_min":36,"x_max":426,"ha":433,"o":"m 44 0 l 44 30 q 75 30 87 45.5 q 99 61 101 88.5 q 103 116 103 152 l 103 152 l 103 380 q 103 396 103.5 412 q 104 428 107 445 l 107 445 q 89 444 71.5 443.5 q 54 443 36 442 l 36 442 l 36 483 l 67 483 q 110 483 126.5 491.5 q 143 500 154 510 l 154 510 l 183 510 q 185 494 186 470.5 q 187 447 188 411 l 188 411 q 203 436 229 460 q 255 484 287.5 500 q 320 516 356 516 l 356 516 q 384 516 405 501 q 426 486 426 453 l 426 453 q 426 445 421 433.5 q 416 422 405 413.5 q 394 405 376 405 l 376 405 q 354 406 341 422.5 q 328 439 331 461 l 331 461 q 306 462 279.5 448 q 253 434 230 409.5 q 207 385 189 352 l 189 352 l 190 106 q 190 86 189.5 70.5 q 189 55 186 38 l 186 38 q 202 39 217.5 39.5 q 233 40 249 41 l 249 41 l 249 0 l 44 0 z"},"s":{"x_min":52,"x_max":422,"ha":463,"o":"m 249 -16 l 249 -16 q 199 -16 160 -2.5 q 121 11 96 28 l 96 28 l 100 -7 l 58 -7 l 52 165 l 83 165 q 85 124 106 91.5 q 127 59 160 41 q 193 23 231 23 l 231 23 q 257 23 282 31.5 q 307 40 324 57.5 q 341 75 341 102 l 341 102 q 341 130 324.5 148.5 q 308 167 281 181 q 254 195 223 207 l 223 207 q 193 219 163 232 q 133 245 107.5 263 q 82 281 67 307 q 52 333 52 371 l 52 371 q 52 392 60 417 q 68 442 87 464.5 q 106 487 139 501.5 q 172 516 223 516 l 223 516 q 250 516 283 507 q 316 498 347 473 l 347 473 l 345 511 l 387 511 l 387 336 l 355 336 q 353 371 339 403.5 q 325 436 298 457.5 q 271 479 228 479 l 228 479 q 182 479 156 456 q 130 433 130 403 l 130 403 q 130 372 149.5 351.5 q 169 331 200 316 q 231 301 266 287 l 266 287 q 304 271 340 252 q 376 233 399 204.5 q 422 176 422 131 l 422 131 q 422 81 396.5 48 q 371 15 331.5 -0.5 q 292 -16 249 -16 z"},"t":{"x_min":21,"x_max":383,"ha":387,"o":"m 232 -16 l 232 -16 q 209 -16 185 -9.5 q 161 -3 140.5 16 q 120 35 108 71.5 q 96 108 96 168 l 96 168 l 98 458 l 21 457 l 21 500 q 47 501 74 519.5 q 101 538 122.5 570 q 144 602 152 640 l 152 640 l 186 640 l 186 500 l 354 500 l 354 461 l 186 459 l 184 181 q 184 136 191.5 104.5 q 199 73 216 57 q 233 41 260 41 l 260 41 q 288 41 312.5 57 q 337 73 356 101 l 356 101 l 383 79 q 361 46 339.5 27 q 318 8 298 -1.5 q 278 -11 261 -13.5 q 244 -16 232 -16 z"},"u":{"x_min":26,"x_max":568,"ha":597,"o":"m 255 -16 l 255 -16 q 201 -16 164.5 4 q 128 24 109.5 72 q 91 120 91 202 l 91 202 l 91 380 q 91 396 91.5 412 q 92 428 95 445 l 95 445 q 78 444 60.5 443.5 q 43 443 26 442 l 26 442 l 26 483 l 57 483 q 100 483 119.5 491.5 q 139 500 150 510 l 150 510 l 179 510 l 179 205 q 179 119 203.5 76.5 q 228 34 287 35 l 287 35 q 325 36 359.5 58.5 q 394 81 415 112 l 415 112 l 415 369 q 415 393 416 410.5 q 417 428 420 445 l 420 445 q 402 444 384 443.5 q 366 443 348 442 l 348 442 l 348 483 l 379 483 q 422 483 441.5 491.5 q 461 500 472 510 l 472 510 l 501 510 l 500 132 q 500 116 499 87 q 498 58 496 38 l 496 38 q 514 39 532 40 q 550 41 568 42 l 568 42 l 568 0 l 425 0 q 422 17 420.5 32 q 419 47 418 60 l 418 60 q 387 29 343 6.5 q 299 -16 255 -16 z"},"v":{"x_min":6,"x_max":502,"ha":505,"o":"m 274 -3 l 234 -3 l 91 323 q 75 361 66 388 q 57 415 53.5 433 q 50 451 49 462 l 49 462 l 6 459 l 6 500 l 190 500 l 190 470 q 160 470 151.5 454.5 q 143 439 149 413.5 q 155 388 167 359 l 167 359 l 244 183 q 252 166 259.5 147.5 q 267 129 274 109 l 274 109 l 275 109 q 280 124 286.5 141 q 293 158 298 174 l 298 174 l 378 393 q 386 417 395 435 q 404 453 408 462 l 408 462 l 344 459 l 344 500 l 502 500 l 502 470 q 480 470 465 455 q 450 440 436.5 410 q 423 380 405 335 l 405 335 l 274 -3 z"},"w":{"x_min":6,"x_max":800,"ha":801,"o":"m 254 -3 l 216 -3 l 85 381 q 78 402 72.5 417 q 67 432 64 443 q 61 454 59 462 l 59 462 l 6 459 l 6 500 l 218 500 l 218 470 q 173 469 168.5 439.5 q 164 410 180 362 l 180 362 l 226 222 q 234 198 242 173.5 q 250 149 258 125 l 258 125 q 267 152 276.5 179.5 q 286 207 295 235 l 295 235 l 384 500 l 425 500 l 526 209 q 534 187 542 164 q 550 141 558 118 l 558 118 q 566 140 573.5 161.5 q 581 183 588 205 l 588 205 l 654 395 q 661 415 668 433 q 675 451 684 462 l 684 462 l 626 459 l 626 500 l 800 500 l 800 470 q 774 469 757.5 463 q 741 457 730 447 q 719 437 712 423 q 705 409 699 391 l 699 391 l 555 -3 l 515 -3 l 420 270 q 414 288 408 305.5 q 402 323 396 340.5 q 390 358 384 375 l 384 375 q 378 358 372 340.5 q 366 323 360 305.5 q 354 288 348 270 l 348 270 l 254 -3 z"},"x":{"x_min":22,"x_max":519,"ha":530,"o":"m 192 0 l 24 0 l 24 30 q 55 38 73 56.5 q 91 75 119 111 l 119 111 l 219 241 q 205 260 185 286.5 q 165 313 147.5 337.5 q 130 362 120 374 l 120 374 q 96 406 85 427 q 74 448 69 461 l 69 461 l 22 459 l 22 500 l 228 500 l 228 470 q 183 469 177.5 449.5 q 172 430 209 379 l 209 379 l 267 300 l 358 410 q 373 428 383 440.5 q 393 453 403 463 l 403 463 l 334 459 l 334 500 l 498 500 l 498 470 q 471 462 452 449.5 q 433 437 414.5 416.5 q 396 396 369 363 l 369 363 l 292 271 l 430 100 q 441 85 452 71 q 463 57 474 38 l 474 38 l 519 41 l 519 0 l 326 0 l 326 30 q 350 30 360.5 41.5 q 371 53 350 79 l 350 79 l 245 209 l 161 94 q 146 74 138 64 q 130 54 115 38 l 115 38 l 192 41 l 192 0 z"},"y":{"x_min":4,"x_max":524,"ha":528,"o":"m 121 -271 l 121 -271 q 90 -271 68 -256 q 46 -241 46 -210 l 46 -210 q 46 -192 58 -177 q 70 -162 89 -162 l 89 -162 q 113 -161 121.5 -177 q 130 -193 130 -205 l 130 -205 q 130 -208 130 -211.5 q 130 -215 129 -219 l 129 -219 q 132 -221 140 -221 l 140 -221 q 152 -221 166 -211 q 180 -201 191 -182 l 191 -182 q 204 -160 221.5 -116 q 239 -72 261 -11 l 261 -11 l 105 323 q 79 379 67.5 412 q 56 445 52 461 l 52 461 l 4 459 l 4 500 l 211 500 l 211 470 l 207 470 q 165 467 161 438.5 q 157 410 184 352 l 184 352 l 301 101 q 324 165 345 227.5 q 366 290 387 352 l 387 352 q 395 374 403.5 397.5 q 412 421 420.5 439.5 q 429 458 436 463 l 436 463 l 367 459 l 367 500 l 524 500 l 524 470 q 487 456 468.5 423.5 q 450 391 431 340 l 431 340 l 306 -9 q 276 -93 251 -151.5 q 226 -210 196 -240.5 q 166 -271 121 -271 z"},"z":{"x_min":40,"x_max":467,"ha":511,"o":"m 455 0 l 40 0 l 40 41 l 319 400 q 335 420 350.5 439.5 q 366 459 376 465 l 376 465 l 188 462 q 151 462 130.5 442.5 q 110 423 101 391.5 q 92 360 86 321 l 86 321 l 55 321 l 67 500 l 459 500 l 459 468 l 177 97 q 164 81 154 69 q 144 57 125 41 l 125 41 l 318 38 q 360 38 384 57 q 408 76 420 109 q 432 142 438 182 l 438 182 l 467 182 l 455 0 z"}," ":{"x_min":0,"x_max":0,"ha":263,"o":""},".":{"x_min":64,"x_max":181,"ha":246,"o":"m 122 -16 l 122 -16 q 99 -16 81.5 2.5 q 64 21 64 48 l 64 48 q 64 75 82 94 q 100 113 123 113 l 123 113 q 148 113 164.5 94 q 181 75 181 48 l 181 48 q 181 21 163 2.5 q 145 -16 122 -16 z"},",":{"x_min":66,"x_max":192,"ha":253,"o":"m 118 -179 l 118 -179 l 91 -159 q 102 -145 114 -119 q 126 -93 133.5 -61.5 q 141 -30 137 0 l 137 0 q 130 -3 124 -4.5 q 118 -6 112 -6 l 112 -6 q 93 -6 79.5 8 q 66 22 66 43 l 66 43 q 66 71 82.5 86 q 99 101 121 101 l 121 101 q 156 101 174 74.5 q 192 48 192 10 l 192 10 q 192 -15 182.5 -51 q 173 -87 156.5 -121.5 q 140 -156 118 -179 z"},";":{"x_min":70,"x_max":196,"ha":263,"o":"m 122 -179 l 122 -179 l 95 -159 q 106 -145 118 -119 q 130 -93 137.5 -61.5 q 145 -30 141 0 l 141 0 q 134 -3 128 -4.5 q 122 -6 116 -6 l 116 -6 q 97 -6 83.5 8 q 70 22 70 43 l 70 43 q 70 71 86.5 86 q 103 101 125 101 l 125 101 q 160 101 178 74.5 q 196 48 196 10 l 196 10 q 196 -15 186.5 -51 q 177 -87 160.5 -121.5 q 144 -156 122 -179 z m 128 387 l 128 387 q 105 387 87.5 405.5 q 70 424 70 451 l 70 451 q 70 478 88 497 q 106 516 129 516 l 129 516 q 154 516 170.5 497 q 187 478 187 451 l 187 451 q 187 424 169 405.5 q 151 387 128 387 z"},":":{"x_min":67,"x_max":184,"ha":250,"o":"m 125 -16 l 125 -16 q 102 -16 84.5 2.5 q 67 21 67 48 l 67 48 q 67 75 85 94 q 103 113 126 113 l 126 113 q 151 113 167.5 94 q 184 75 184 48 l 184 48 q 184 21 166 2.5 q 148 -16 125 -16 z m 125 387 l 125 387 q 102 387 84.5 405.5 q 67 424 67 451 l 67 451 q 67 478 85 497 q 103 516 126 516 l 126 516 q 151 516 167.5 497 q 184 478 184 451 l 184 451 q 184 424 166 405.5 q 148 387 125 387 z"},"!":{"x_min":73,"x_max":192,"ha":266,"o":"m 151 230 l 114 230 l 75 643 q 73 669 87.5 692.5 q 102 716 133 716 l 133 716 q 165 716 178.5 692.5 q 192 669 190 643 l 190 643 l 151 230 z m 132 -16 l 132 -16 q 109 -16 91.5 2.5 q 74 21 74 48 l 74 48 q 74 75 92 94 q 110 113 133 113 l 133 113 q 158 113 174.5 94 q 191 75 191 48 l 191 48 q 191 21 173 2.5 q 155 -16 132 -16 z"},"?":{"x_min":33,"x_max":439,"ha":474,"o":"m 226 188 l 226 188 q 197 188 171.5 203 q 146 218 146 255 l 146 255 q 146 277 159 296 q 172 315 193.5 334 q 215 353 238 373 l 238 373 q 276 405 308 445.5 q 340 486 342 544 l 342 544 q 343 581 332 611 q 321 641 294 659 q 267 677 220 677 l 220 677 q 192 677 167.5 666 q 143 655 128 638.5 q 113 622 110 606 l 110 606 q 115 598 118.5 588 q 122 578 122 567 l 122 567 q 122 559 117 548.5 q 112 538 102 531 q 92 524 76 524 l 76 524 q 54 526 43.5 540.5 q 33 555 33 577 l 33 577 q 33 606 57.5 638.5 q 82 671 127 693.5 q 172 716 235 716 l 235 716 q 313 716 357.5 690 q 402 664 420.5 624 q 439 584 437 542 l 437 542 q 434 501 410.5 467.5 q 387 434 354 406 q 321 378 289 354 q 257 330 235 308.5 q 213 287 213 267 l 213 267 q 213 255 222.5 244.5 q 232 234 255 234 l 255 234 q 263 234 273 235.5 q 283 237 292 241 l 292 241 l 304 206 q 288 197 266 192.5 q 244 188 226 188 z m 232 -16 l 232 -16 q 212 -16 195 -0.5 q 178 15 178 43 l 178 43 q 178 67 195 84.5 q 212 102 232 102 l 232 102 q 255 102 270.5 84.5 q 286 67 286 43 l 286 43 q 286 18 270.5 1 q 255 -16 232 -16 z"},"-":{"x_min":67,"x_max":422,"ha":489,"o":"m 422 289 l 67 285 l 67 355 l 422 355 l 422 289 z"},"_":{"x_min":57,"x_max":672,"ha":729,"o":"m 672 -111 l 57 -111 l 57 -50 l 672 -54 l 672 -111 z"},"(":{"x_min":36,"x_max":288,"ha":305,"o":"m 263 760 l 263 760 l 288 737 q 257 696 232.5 650.5 q 208 605 190 556.5 q 172 508 160.5 456 q 149 404 143 349.5 q 137 295 137 239 l 137 239 q 137 183 143 129.5 q 149 76 160.5 26 q 172 -24 190 -71.5 q 208 -119 232.5 -163 q 257 -207 288 -248 l 288 -248 l 263 -271 q 226 -237 186 -184.5 q 146 -132 112 -65 q 78 2 57 79 q 36 156 36 239 l 36 239 q 36 322 57 401 q 78 480 112 549 q 146 618 186 672 q 226 726 263 760 z"},")":{"x_min":18,"x_max":270,"ha":305,"o":"m 43 -271 l 43 -271 l 18 -248 q 49 -207 73.5 -161.5 q 98 -116 116 -67.5 q 134 -19 145.5 33 q 157 85 163 139.5 q 169 194 169 250 l 169 250 q 169 306 163 359.5 q 157 413 145.5 463 q 134 513 116 560.5 q 98 608 73.5 652 q 49 696 18 737 l 18 737 l 43 760 q 80 726 120 673.5 q 160 621 194 554 q 228 487 249 410 q 270 333 270 250 l 270 250 q 270 167 249 88 q 228 9 194 -60 q 160 -129 120 -183 q 80 -237 43 -271 z"}}}
